<svg class="svg-icon" style="width: 1em; height: 1em;vertical-align: middle;fill: currentColor;overflow: hidden;" viewBox="0 0 1024 1024" version="1.1" xmlns="http://www.w3.org/2000/svg"><path d="M49.5 699.9c-7.6 0-14.4-5.3-16-13C3.1 542.4 3.4 429.7 34.3 352c3.3-8.4 12.8-12.5 21.3-9.2 8.4 3.3 12.5 12.9 9.2 21.3-28.5 71.7-28.2 178 0.8 316.1 1.9 8.9-3.8 17.6-12.7 19.4-1.1 0.2-2.3 0.3-3.4 0.3zM82.2 309C178.8 120.5 321.9 30.9 519.1 35.9c9.5 0.2 16.6-6.9 16.8-16 0.2-9.1-6.9-16.6-16-16.8C311.5-1.5 154.6 96 53 294c-4.1 8-1 17.9 7.1 22.1 2.4 1.2 4.9 1.8 7.5 1.8 5.9 0 11.7-3.2 14.6-8.9zM993 529.4c9-0.2 16.2-7.7 16-16.8C1002 225 856.7 54 577.1 4.2c-9-1.7-17.4 4.4-19 13.3-1.6 8.9 4.4 17.4 13.3 19 265.8 47.3 398.2 203.3 404.8 476.9 0.2 8.9 7.5 16 16.4 16h0.4zM119.3 804.5c22.6-57.2 22.9-130.9 0.7-218.9C90.3 468.2 149.4 286 299.5 184.5c7.5-5.1 9.5-15.3 4.4-22.8s-15.3-9.5-22.8-4.4c-162 109.6-225.4 307.9-193 436.3 20.5 81.2 20.7 148.2 0.7 198.9-3.3 8.4 0.8 17.9 9.2 21.3 2 0.8 4 1.2 6 1.2 6.6-0.1 12.7-4.1 15.3-10.5z m823.4-206c16.8-188.6-63.3-305.9-112.5-359-145-157.2-312.9-193.1-498.9-106.4-8.2 3.8-11.8 13.6-7.9 21.8 3.8 8.2 13.6 11.7 21.8 7.9 174.1-81 324.9-48.6 461 99C851.6 311 925.7 419.7 910 595.6c-0.8 9 5.9 17 14.9 17.8 0.5 0 1 0.1 1.5 0.1 8.3 0 15.5-6.4 16.3-15z m-14.1 167.8c25.3-97.2 14.9-133.6 13.7-137.4-2.8-8.5-11.8-12.9-20.3-10.4-8.5 2.6-13.3 11.7-10.9 20.3 0.1 0.3 8.5 32.2-14.1 119.3-2.3 8.8 3 17.7 11.7 20 1.4 0.4 2.8 0.5 4.1 0.5 7.2 0 13.8-4.9 15.8-12.3z m-767.1 96.8c45.3-53.3 60.9-141.4 46.2-261.8-10.1-82.8-13.3-235.1 78.4-325 62.6-61.3 160.2-83.1 289.9-64.7 9 1.3 17.3-5 18.5-13.9 1.3-9-5-17.3-13.9-18.5-140.5-19.9-247.3 4.8-317.5 73.7-101.7 99.7-98.8 263.5-87.9 352.3 13.5 110.9 0.5 190.5-38.7 236.6-5.9 6.9-5 17.2 1.9 23.1 3.1 2.6 6.8 3.9 10.6 3.9 4.6 0.1 9.3-1.9 12.5-5.7z m676.5 9.2c57.7-339.9-2.2-562.8-178.3-662.5-7.9-4.4-17.9-1.7-22.3 6.2-4.5 7.9-1.7 17.9 6.2 22.3C806.4 330.5 860.9 542 805.7 866.8c-1.5 8.9 4.5 17.4 13.4 18.9 0.9 0.1 1.8 0.2 2.8 0.2 7.8 0.1 14.8-5.6 16.1-13.6z m-610.9 45.5c34.2-45.9 51.5-92.9 51.5-139.6 0-9.1-7.3-16.4-16.4-16.4s-16.4 7.3-16.4 16.4c0 39.5-15.1 79.8-45 120-5.4 7.3-3.9 17.5 3.4 22.9 2.9 2.2 6.4 3.2 9.8 3.2 5 0.2 9.9-2.1 13.1-6.5z m62-192.3c14.9-57.2 15-120.6 0.2-188.4-0.2-1-0.5-1.9-0.9-2.8-13.7-32.8-11.7-100.4 15.6-156.9 15.1-31.3 44.1-71.6 96.7-86.4 132.3-37.3 222.8-10.1 284.8 85.6 4.9 7.6 15.1 9.8 22.7 4.8 7.6-4.9 9.8-15.1 4.8-22.7-70-107.9-175-140.4-321.2-99.3-50.9 14.3-91.5 50.2-117.3 103.7-32 66.4-32.6 143-16.9 182.3 13.4 62.2 13.4 120-0.2 171.7-2.3 8.8 3 17.7 11.7 20 1.4 0.4 2.8 0.5 4.1 0.5 7.4 0.2 14-4.7 15.9-12.1z m442.8 219.8c62.9-192.7 67.8-367.8 14.5-520.6-3-8.6-12.4-13.1-20.9-10.1-8.5 3-13.1 12.3-10.1 20.9 50.9 145.9 46 314-14.7 499.7-2.8 8.6 1.9 17.9 10.5 20.7 1.7 0.6 3.4 0.8 5.1 0.8 6.9-0.1 13.3-4.5 15.6-11.4z m-429.7 5.2c51.2-114.8 72.7-220.7 64.1-314.7-1.5-16.6-3.1-32.3-4.6-47.1-11.1-110.3-14.1-156 23.3-176.6 7.9-4.4 10.8-14.3 6.4-22.3-4.4-7.9-14.3-10.8-22.3-6.4-57.7 31.9-51.1 98.4-40 208.5 1.5 14.7 3 30.3 4.6 46.8 8.1 88.3-12.5 188.7-61.4 298.3-3.7 8.3 0 18 8.3 21.6 2.2 1 4.4 1.4 6.7 1.4 6.2 0.2 12.2-3.4 14.9-9.5z m325.7 55.7c32.1-39.4 86.8-259 74.1-421.7-17.3-122-54.6-197.9-113.9-232.1-46.1-26.6-104.3-26-173 1.7-8.4 3.4-12.5 12.9-9.1 21.3 3.4 8.4 12.9 12.4 21.3 9.1 58.9-23.8 107.5-25 144.4-3.8 49.4 28.5 82.3 98.6 97.7 207.3 12.2 157.1-42.5 367.4-66.9 397.4-5.7 7-4.7 17.3 2.4 23.1 3 2.5 6.7 3.7 10.3 3.7 4.8 0.1 9.5-2 12.7-6z m-252.5-20.8c57.9-120.2 87.2-218.3 87.2-291.4 0-32.1-4.6-65.9-9.1-98.6-11.9-86.4-15.9-139.9 27-155.4 15.4-5 38-7.7 58.5 8.4 28.4 22.4 59.4 85.5 45.4 258.9-0.7 9 6 16.9 15 17.7 9.1 0.6 16.9-6 17.7-15 12.2-150.8-7.3-247.4-57.8-287.2-33.5-26.4-70.1-20-89.4-13.7-71.4 25.8-59.9 109.7-48.8 190.8 4.3 31.6 8.8 64.3 8.8 94.1 0 68.2-28.3 161.4-84 277.2-3.9 8.1-0.5 17.9 7.7 21.9 2.3 1.1 4.7 1.6 7.1 1.6 6-0.1 11.9-3.5 14.7-9.3z m171.1 29.3c18-16.5 43.7-61 59.8-256.1 0.7-9-6-16.9-15-17.7-9.1-0.7-16.9 6-17.7 15-14.7 178.2-37.2 223.5-49.3 234.6-6.7 6.1-7.1 16.5-1 23.2 3.2 3.5 7.6 5.3 12.1 5.3 3.9 0 7.9-1.4 11.1-4.3z m-38.1-147c47-137.9 48.7-265 5-377.7-3.3-8.4-12.8-12.6-21.2-9.4-8.4 3.3-12.6 12.8-9.3 21.2 40.8 105.3 39 224.8-5.4 355.3-2.9 8.6 1.7 17.9 10.2 20.8 1.8 0.6 3.5 0.9 5.3 0.9 6.7 0 13.1-4.3 15.4-11.1z m-46.5 133c5.7-8.4 14.6-26.7 26.1-89.6 1.6-8.9-4.3-17.4-13.2-19.1-8.9-1.7-17.4 4.3-19.1 13.2-10.4 57.1-18.1 72.8-20.9 77-5.1 7.5-3.2 17.7 4.3 22.8 2.8 1.9 6 2.8 9.2 2.8 5.3 0 10.4-2.5 13.6-7.1z" fill="#999999" /></svg>